<svg width="1440" height="152" viewBox="0 0 1440 152" fill="none" xmlns="http://www.w3.org/2000/svg">
<rect y="2" width="1440" height="150" fill="white"/>
<path d="M42.5 123.328V137.328H41.0781V130.062H39.3438V136.656H37.9531V123.703H39.3438V128.859H41.0781V123.328H42.5ZM36.5625 125.109C36.5469 128.797 35.3281 132.094 31.3281 134.359L30.4688 133.328C33.5781 131.57 34.8906 129.188 35.125 126.328H31.0625V125.109H36.5625ZM55.3131 123.344V133.516H53.8287V123.344H55.3131ZM55.735 135.828V137.031H46.1569V132.484H47.6569V135.828H55.735ZM47.7194 124.281C49.8287 124.281 51.4381 125.719 51.4381 127.75C51.4381 129.812 49.8287 131.234 47.7194 131.234C45.61 131.234 43.985 129.812 43.985 127.75C43.985 125.719 45.61 124.281 47.7194 124.281ZM47.7194 125.578C46.4069 125.578 45.4381 126.469 45.4381 127.75C45.4381 129.062 46.4069 129.938 47.7194 129.938C49.0006 129.938 49.985 129.062 49.985 127.75C49.985 126.469 49.0006 125.578 47.7194 125.578ZM68.5637 123.328V131.656H67.0794V128.109H64.47V126.891H67.0794V123.328H68.5637ZM63.8762 132.047C66.8137 132.047 68.6106 133.016 68.6106 134.688C68.6106 136.359 66.8137 137.312 63.8762 137.328C60.9387 137.312 59.1262 136.359 59.1419 134.688C59.1262 133.016 60.9387 132.047 63.8762 132.047ZM63.8762 133.203C61.8294 133.203 60.6106 133.734 60.6106 134.688C60.6106 135.625 61.8294 136.172 63.8762 136.156C65.9231 136.172 67.1419 135.625 67.1419 134.688C67.1419 133.734 65.9231 133.203 63.8762 133.203ZM61.9075 125.797C61.9075 127.578 63.1731 129.297 65.2825 130.016L64.5169 131.188C62.9466 130.641 61.7903 129.523 61.1887 128.141C60.5716 129.711 59.345 130.969 57.6731 131.578L56.8919 130.391C59.0637 129.641 60.3919 127.75 60.3919 125.812V125.5H57.3606V124.297H64.9075V125.5H61.9075V125.797ZM82.8925 134.359V135.594H70.08V134.359H75.7206V131.484H71.5488V124.281H73.0331V126.688H79.9081V124.281H81.3769V131.484H77.1894V134.359H82.8925ZM73.0331 130.281H79.9081V127.891H73.0331V130.281ZM94.9556 123.328V137.359H93.4712V130.078H90.5806V128.875H93.4712V123.328H94.9556ZM88.2369 127.828C88.2369 130.047 89.6587 132.312 91.815 133.266L90.9869 134.406C89.3853 133.695 88.1509 132.234 87.5337 130.469C86.9166 132.336 85.69 133.898 84.0806 134.641L83.2681 133.5C85.3931 132.531 86.7681 130.141 86.7681 127.828V126.906H83.6587V125.719H86.7837V123.609H88.2681V125.719H91.2994V126.906H88.2369V127.828ZM108.081 123.328V137.359H106.597V123.328H108.081ZM103.8 124.594V129.703H98.7688V132.766C101.034 132.758 103.019 132.656 105.363 132.266L105.503 133.484C103.019 133.906 100.909 134 98.4406 134H97.2531V128.516H102.284V125.797H97.2375V124.594H103.8ZM116.129 132.047C119.019 132.047 120.769 133.016 120.769 134.672C120.769 136.344 119.019 137.312 116.129 137.328C113.207 137.312 111.426 136.344 111.426 134.672C111.426 133.016 113.207 132.047 116.129 132.047ZM116.129 133.219C114.098 133.219 112.894 133.734 112.91 134.672C112.894 135.609 114.098 136.141 116.129 136.141C118.144 136.141 119.316 135.609 119.316 134.672C119.316 133.734 118.144 133.219 116.129 133.219ZM120.644 123.328V126.75H122.676V128.016H120.644V131.688H119.16V123.328H120.644ZM111.644 124.203V126.219H115.316V124.203H116.785V130.703H110.191V124.203H111.644ZM111.644 129.516H115.316V127.391H111.644V129.516ZM127.926 125.344C127.911 127.281 129.239 129.047 131.395 129.766L130.645 130.938C129.028 130.367 127.809 129.227 127.176 127.766C126.551 129.336 125.325 130.578 123.661 131.172L122.911 130.016C125.098 129.234 126.411 127.344 126.411 125.344V124H127.926V125.344ZM134.442 132.406V137.328H132.957V133.609H124.957V132.406H134.442ZM134.442 123.328V131.734H132.957V123.328H134.442ZM141.459 124.688V136H139.787V124.688H141.459ZM157.21 123.328V137.359H155.726V123.328H157.21ZM147.882 124.5V128.094H151.647V124.5H153.116V134H146.397V124.5H147.882ZM147.882 132.781H151.647V129.266H147.882V132.781ZM171.617 134.297V135.516H158.804V134.297H171.617ZM165.961 126.297C165.961 128.438 168.383 130.328 171.054 130.75L170.461 131.922C168.203 131.5 166.117 130.18 165.195 128.344C164.297 130.195 162.226 131.555 160.008 131.984L159.398 130.797C162.008 130.375 164.414 128.438 164.414 126.297V125.859H159.867V124.656H170.508V125.859H165.961V126.297ZM183.617 123.328V137.328H182.133V123.328H183.617ZM174.321 124.688V132.484C176.36 132.469 178.508 132.305 180.758 131.844L180.961 133.094C178.477 133.594 176.227 133.766 174.024 133.766H172.852V124.688H174.321ZM192.29 125.312C192.29 127.594 194.727 129.75 197.415 130.234L196.727 131.469C194.493 130.984 192.431 129.516 191.524 127.547C190.602 129.5 188.548 130.969 186.306 131.469L185.649 130.234C188.306 129.734 190.727 127.594 190.727 125.312V124.25H192.29V125.312ZM197.993 134.25V135.484H185.181V134.25H197.993ZM214.432 130.406V131.609H208.869V134.328H207.401V131.609H201.619V130.406H214.432ZM212.776 123.984V128.953H203.26V123.984H212.776ZM204.713 125.156V127.781H211.307V125.156H204.713ZM213.01 135.828V137.031H203.213V133H204.697V135.828H213.01ZM219.386 124.328C221.604 124.312 223.182 125.688 223.198 127.656C223.182 129.625 221.604 131 219.386 131C217.182 131 215.557 129.625 215.573 127.656C215.557 125.688 217.182 124.312 219.386 124.328ZM219.386 125.609C218.026 125.609 217.026 126.422 217.042 127.656C217.026 128.891 218.026 129.703 219.386 129.703C220.745 129.703 221.745 128.891 221.745 127.656C221.745 126.422 220.745 125.609 219.386 125.609ZM226.401 123.328V137.359H224.917V123.328H226.401ZM214.901 133.109C217.448 133.109 220.979 133.078 224.042 132.641L224.151 133.719C220.979 134.328 217.589 134.344 215.089 134.344L214.901 133.109Z" fill="black" fill-opacity="0.6"/>
<path d="M1236.83 128.592H1237.81V132.16C1237.81 132.853 1237.88 133.365 1238.03 133.696C1238.19 134.027 1238.44 134.192 1238.78 134.192C1239.2 134.192 1239.51 133.963 1239.73 133.504C1239.94 133.045 1240.05 132.416 1240.05 131.616C1240.05 130.08 1239.64 128.795 1238.83 127.76C1238.02 126.715 1236.98 126.192 1235.7 126.192C1234.44 126.192 1233.39 126.725 1232.56 127.792C1231.74 128.848 1231.33 130.176 1231.33 131.776C1231.33 133.461 1231.73 134.816 1232.53 135.84C1233.34 136.864 1234.44 137.376 1235.82 137.376C1236.83 137.376 1237.69 137.136 1238.42 136.656L1238.75 137.184C1237.95 137.717 1236.98 137.984 1235.82 137.984C1234.26 137.984 1233.01 137.419 1232.08 136.288C1231.15 135.168 1230.69 133.664 1230.69 131.776C1230.69 129.963 1231.16 128.48 1232.1 127.328C1233.05 126.165 1234.25 125.584 1235.7 125.584C1237.17 125.584 1238.37 126.149 1239.3 127.28C1240.22 128.4 1240.69 129.829 1240.69 131.568C1240.69 132.656 1240.5 133.488 1240.13 134.064C1239.77 134.64 1239.25 134.928 1238.58 134.928C1237.72 134.928 1237.18 134.496 1236.94 133.632C1236.77 134.091 1236.53 134.448 1236.21 134.704C1235.9 134.96 1235.56 135.088 1235.18 135.088C1234.59 135.088 1234.09 134.789 1233.7 134.192C1233.3 133.595 1233.1 132.789 1233.1 131.776C1233.1 130.752 1233.3 129.941 1233.7 129.344C1234.09 128.736 1234.59 128.432 1235.18 128.432C1235.53 128.432 1235.84 128.539 1236.13 128.752C1236.43 128.965 1236.66 129.264 1236.83 129.648V128.592ZM1234.45 133.6C1234.69 134.048 1235.03 134.272 1235.46 134.272C1235.88 134.272 1236.22 134.048 1236.46 133.6C1236.71 133.141 1236.83 132.533 1236.83 131.776C1236.83 131.008 1236.71 130.395 1236.46 129.936C1236.22 129.477 1235.88 129.248 1235.46 129.248C1235.03 129.248 1234.69 129.477 1234.45 129.936C1234.2 130.395 1234.08 131.008 1234.08 131.776C1234.08 132.533 1234.2 133.141 1234.45 133.6ZM1242.54 134.96H1247.25V136H1240.96V135.024L1243.9 131.12C1244.3 130.608 1244.55 130.272 1244.67 130.112C1244.8 129.941 1244.97 129.68 1245.2 129.328C1245.42 128.965 1245.57 128.651 1245.63 128.384C1245.71 128.107 1245.74 127.813 1245.74 127.504C1245.74 126.907 1245.6 126.448 1245.31 126.128C1245.03 125.808 1244.67 125.648 1244.22 125.648C1243.13 125.648 1242.53 126.613 1242.41 128.544L1241.17 128.448C1241.24 127.147 1241.55 126.181 1242.08 125.552C1242.62 124.923 1243.34 124.608 1244.22 124.608C1245.07 124.608 1245.74 124.864 1246.26 125.376C1246.77 125.877 1247.02 126.587 1247.02 127.504C1247.02 128.187 1246.87 128.827 1246.57 129.424C1246.29 130.011 1245.78 130.763 1245.05 131.68L1242.54 134.96ZM1248.63 134.672C1248.05 133.648 1247.75 132.224 1247.75 130.4C1247.75 128.576 1248.05 127.157 1248.63 126.144C1249.23 125.12 1250.06 124.608 1251.13 124.608C1252.19 124.608 1253.02 125.12 1253.61 126.144C1254.21 127.157 1254.5 128.576 1254.5 130.4C1254.5 132.224 1254.21 133.648 1253.61 134.672C1253.02 135.685 1252.19 136.192 1251.13 136.192C1250.06 136.192 1249.23 135.685 1248.63 134.672ZM1249.59 126.912C1249.22 127.755 1249.03 128.917 1249.03 130.4C1249.03 131.883 1249.22 133.045 1249.59 133.888C1249.97 134.731 1250.48 135.152 1251.13 135.152C1251.78 135.152 1252.29 134.731 1252.66 133.888C1253.04 133.045 1253.22 131.883 1253.22 130.4C1253.22 128.917 1253.04 127.755 1252.66 126.912C1252.29 126.069 1251.78 125.648 1251.13 125.648C1250.48 125.648 1249.97 126.069 1249.59 126.912ZM1256.37 134.96H1261.08V136H1254.79V135.024L1257.73 131.12C1258.13 130.608 1258.38 130.272 1258.5 130.112C1258.63 129.941 1258.8 129.68 1259.03 129.328C1259.25 128.965 1259.4 128.651 1259.46 128.384C1259.54 128.107 1259.57 127.813 1259.57 127.504C1259.57 126.907 1259.43 126.448 1259.14 126.128C1258.86 125.808 1258.5 125.648 1258.05 125.648C1256.96 125.648 1256.36 126.613 1256.24 128.544L1255 128.448C1255.07 127.147 1255.38 126.181 1255.91 125.552C1256.45 124.923 1257.17 124.608 1258.05 124.608C1258.9 124.608 1259.57 124.864 1260.08 125.376C1260.6 125.877 1260.85 126.587 1260.85 127.504C1260.85 128.187 1260.7 128.827 1260.4 129.424C1260.12 130.011 1259.61 130.763 1258.88 131.68L1256.37 134.96ZM1265.31 128.752C1266.16 128.752 1266.86 129.083 1267.41 129.744C1267.96 130.395 1268.24 131.296 1268.24 132.448C1268.24 133.611 1267.94 134.528 1267.36 135.2C1266.78 135.861 1266 136.192 1265.01 136.192C1262.72 136.192 1261.58 134.341 1261.58 130.64C1261.58 128.677 1261.88 127.184 1262.48 126.16C1263.09 125.125 1263.95 124.608 1265.07 124.608C1265.91 124.608 1266.58 124.885 1267.07 125.44C1267.56 125.984 1267.84 126.731 1267.92 127.68L1266.67 127.776C1266.63 127.136 1266.47 126.624 1266.21 126.24C1265.94 125.845 1265.56 125.648 1265.07 125.648C1264.38 125.648 1263.84 126.069 1263.45 126.912C1263.07 127.744 1262.87 128.939 1262.86 130.496C1263.09 129.931 1263.41 129.499 1263.84 129.2C1264.27 128.901 1264.77 128.752 1265.31 128.752ZM1265.01 135.152C1265.59 135.152 1266.06 134.907 1266.41 134.416C1266.77 133.915 1266.94 133.259 1266.94 132.448C1266.94 131.637 1266.77 130.987 1266.41 130.496C1266.06 130.005 1265.59 129.76 1265.01 129.76C1264.43 129.76 1263.97 130.005 1263.61 130.496C1263.26 130.987 1263.09 131.637 1263.09 132.448C1263.09 133.259 1263.26 133.915 1263.61 134.416C1263.97 134.907 1264.43 135.152 1265.01 135.152ZM1277.47 136L1274.33 130.848H1273.03V136H1271.69V124.8H1273.03V129.808H1274.33L1277.23 124.8H1278.79L1275.37 130.24L1279.07 136H1277.47ZM1278.73 130.736H1282.1V131.728H1278.73V130.736ZM1291.01 124.8H1293.23L1293.21 136H1291.92V125.696L1289.23 136H1287.55L1284.85 125.68V136H1283.57V124.8H1285.81L1288.4 135.232L1291.01 124.8ZM1296.43 134.944H1301.43V136H1295.08V124.8H1301.26V125.856H1296.43V129.792H1300.23V130.816H1296.43V134.944ZM1302.31 136V134.256H1303.75V136H1302.31ZM1313.33 136L1312.53 133.008H1308.56L1307.78 136H1306.43L1309.55 124.8H1311.6L1314.71 136H1313.33ZM1308.85 131.984H1312.26L1310.55 125.52L1308.85 131.984ZM1315.31 124.224H1316.59V136H1315.31V124.224ZM1318 124.224H1319.28V136H1318V124.224ZM1326.44 127.472C1326.67 127.472 1326.92 127.499 1327.19 127.552V128.704C1326.89 128.651 1326.6 128.624 1326.31 128.624C1325.1 128.624 1324.5 129.648 1324.5 131.696V136H1323.22L1323.24 127.616H1324.42V129.216C1324.79 128.053 1325.47 127.472 1326.44 127.472ZM1328 126.224V124.464H1329.35V126.224H1328ZM1328.03 136V127.616H1329.31V136H1328.03ZM1335.41 127.616H1336.59V135.456C1336.59 136.8 1336.35 137.792 1335.86 138.432C1335.37 139.072 1334.61 139.392 1333.57 139.392C1332.69 139.392 1331.99 139.168 1331.49 138.72C1330.99 138.272 1330.72 137.6 1330.69 136.704H1331.87C1331.9 137.269 1332.05 137.696 1332.34 137.984C1332.64 138.272 1333.04 138.416 1333.54 138.416C1334.72 138.416 1335.31 137.547 1335.31 135.808V134.352C1334.81 135.344 1334.09 135.84 1333.14 135.84C1332.29 135.84 1331.59 135.456 1331.06 134.688C1330.53 133.92 1330.26 132.901 1330.26 131.632C1330.26 130.363 1330.53 129.344 1331.06 128.576C1331.59 127.808 1332.28 127.424 1333.12 127.424C1334.17 127.424 1334.93 127.989 1335.41 129.12V127.616ZM1332.05 133.984C1332.41 134.571 1332.89 134.864 1333.47 134.864C1334.06 134.864 1334.53 134.571 1334.88 133.984C1335.23 133.397 1335.41 132.624 1335.41 131.664C1335.41 130.704 1335.23 129.925 1334.88 129.328C1334.53 128.731 1334.06 128.432 1333.47 128.432C1332.89 128.432 1332.41 128.731 1332.05 129.328C1331.7 129.925 1331.52 130.704 1331.52 131.664C1331.52 132.613 1331.7 133.387 1332.05 133.984ZM1341.6 127.424C1342.34 127.424 1342.91 127.664 1343.3 128.144C1343.71 128.624 1343.91 129.307 1343.91 130.192V136H1342.64V130.496C1342.64 129.141 1342.14 128.464 1341.14 128.464C1340.55 128.464 1340.1 128.699 1339.76 129.168C1339.44 129.627 1339.28 130.229 1339.28 130.976V136H1338V124.224H1339.28V128.8C1339.76 127.883 1340.54 127.424 1341.6 127.424ZM1348.54 128.576H1346.89V133.648C1346.89 134.203 1346.95 134.581 1347.07 134.784C1347.19 134.987 1347.42 135.088 1347.76 135.088C1347.83 135.088 1348.09 135.061 1348.54 135.008V136.016C1348.21 136.091 1347.87 136.128 1347.52 136.128C1346.83 136.128 1346.34 135.957 1346.05 135.616C1345.76 135.264 1345.61 134.677 1345.61 133.856V128.576H1344.21V127.648H1345.28C1345.43 127.648 1345.53 127.611 1345.6 127.536C1345.66 127.461 1345.69 127.339 1345.69 127.168V125.776H1346.89V127.616H1348.54V128.576ZM1348.77 133.632L1349.94 133.584C1350.04 134.704 1350.62 135.264 1351.7 135.264C1352.19 135.264 1352.58 135.147 1352.87 134.912C1353.17 134.667 1353.32 134.325 1353.32 133.888C1353.32 133.557 1353.21 133.285 1353 133.072C1352.79 132.848 1352.45 132.64 1351.96 132.448L1350.68 131.984C1349.55 131.568 1348.98 130.8 1348.98 129.68C1348.98 128.933 1349.22 128.373 1349.68 128C1350.16 127.616 1350.78 127.424 1351.52 127.424C1352.35 127.424 1353.01 127.632 1353.52 128.048C1354.05 128.453 1354.35 129.067 1354.42 129.888L1353.24 129.952C1353.18 129.429 1353 129.035 1352.69 128.768C1352.39 128.491 1352.02 128.352 1351.57 128.352C1351.16 128.352 1350.83 128.464 1350.58 128.688C1350.35 128.912 1350.23 129.227 1350.23 129.632C1350.23 130.272 1350.62 130.741 1351.4 131.04L1352.68 131.488C1353.95 131.947 1354.58 132.725 1354.58 133.824C1354.58 134.571 1354.32 135.152 1353.8 135.568C1353.28 135.984 1352.58 136.192 1351.68 136.192C1350.81 136.192 1350.12 135.984 1349.6 135.568C1349.1 135.141 1348.83 134.496 1348.77 133.632ZM1361.16 127.472C1361.4 127.472 1361.65 127.499 1361.91 127.552V128.704C1361.61 128.651 1361.32 128.624 1361.03 128.624C1359.83 128.624 1359.22 129.648 1359.22 131.696V136H1357.94L1357.96 127.616H1359.14V129.216C1359.52 128.053 1360.19 127.472 1361.16 127.472ZM1368.37 132V132.16H1363.25C1363.29 133.184 1363.5 133.957 1363.87 134.48C1364.24 135.003 1364.73 135.264 1365.34 135.264C1366.23 135.264 1366.8 134.757 1367.05 133.744L1368.27 133.824C1368.11 134.56 1367.78 135.141 1367.28 135.568C1366.78 135.984 1366.13 136.192 1365.34 136.192C1364.31 136.192 1363.49 135.824 1362.88 135.088C1362.28 134.352 1361.98 133.259 1361.98 131.808C1361.98 130.368 1362.27 129.28 1362.86 128.544C1363.46 127.797 1364.25 127.424 1365.25 127.424C1367.33 127.424 1368.37 128.949 1368.37 132ZM1365.25 128.352C1364.68 128.352 1364.22 128.603 1363.85 129.104C1363.5 129.605 1363.3 130.341 1363.25 131.312H1367.13C1367.11 130.384 1366.94 129.659 1366.62 129.136C1366.3 128.613 1365.84 128.352 1365.25 128.352ZM1368.65 133.632L1369.82 133.584C1369.91 134.704 1370.5 135.264 1371.58 135.264C1372.07 135.264 1372.46 135.147 1372.75 134.912C1373.04 134.667 1373.19 134.325 1373.19 133.888C1373.19 133.557 1373.09 133.285 1372.87 133.072C1372.67 132.848 1372.32 132.64 1371.83 132.448L1370.55 131.984C1369.42 131.568 1368.86 130.8 1368.86 129.68C1368.86 128.933 1369.09 128.373 1369.56 128C1370.04 127.616 1370.66 127.424 1371.4 127.424C1372.22 127.424 1372.89 127.632 1373.4 128.048C1373.92 128.453 1374.22 129.067 1374.3 129.888L1373.11 129.952C1373.06 129.429 1372.88 129.035 1372.57 128.768C1372.27 128.491 1371.9 128.352 1371.45 128.352C1371.03 128.352 1370.7 128.464 1370.46 128.688C1370.22 128.912 1370.11 129.227 1370.11 129.632C1370.11 130.272 1370.5 130.741 1371.27 131.04L1372.55 131.488C1373.82 131.947 1374.46 132.725 1374.46 133.824C1374.46 134.571 1374.2 135.152 1373.67 135.568C1373.16 135.984 1372.46 136.192 1371.56 136.192C1370.69 136.192 1369.99 135.984 1369.48 135.568C1368.98 135.141 1368.7 134.496 1368.65 133.632ZM1381.21 132V132.16H1376.09C1376.13 133.184 1376.34 133.957 1376.71 134.48C1377.09 135.003 1377.58 135.264 1378.19 135.264C1379.07 135.264 1379.64 134.757 1379.9 133.744L1381.11 133.824C1380.95 134.56 1380.62 135.141 1380.12 135.568C1379.62 135.984 1378.98 136.192 1378.19 136.192C1377.15 136.192 1376.33 135.824 1375.72 135.088C1375.12 134.352 1374.83 133.259 1374.83 131.808C1374.83 130.368 1375.12 129.28 1375.71 128.544C1376.3 127.797 1377.1 127.424 1378.09 127.424C1380.17 127.424 1381.21 128.949 1381.21 132ZM1378.09 128.352C1377.52 128.352 1377.06 128.603 1376.7 129.104C1376.35 129.605 1376.14 130.341 1376.09 131.312H1379.98C1379.96 130.384 1379.79 129.659 1379.47 129.136C1379.15 128.613 1378.69 128.352 1378.09 128.352ZM1385.34 127.472C1385.57 127.472 1385.82 127.499 1386.09 127.552V128.704C1385.79 128.651 1385.5 128.624 1385.21 128.624C1384 128.624 1383.4 129.648 1383.4 131.696V136H1382.12L1382.14 127.616H1383.32V129.216C1383.69 128.053 1384.36 127.472 1385.34 127.472ZM1391.41 127.616H1392.77L1390.42 136H1388.48L1386.15 127.616H1387.54L1389.46 135.248L1391.41 127.616ZM1399.1 132V132.16H1393.98C1394.03 133.184 1394.23 133.957 1394.61 134.48C1394.98 135.003 1395.47 135.264 1396.08 135.264C1396.96 135.264 1397.53 134.757 1397.79 133.744L1399.01 133.824C1398.85 134.56 1398.52 135.141 1398.01 135.568C1397.51 135.984 1396.87 136.192 1396.08 136.192C1395.04 136.192 1394.22 135.824 1393.61 135.088C1393.02 134.352 1392.72 133.259 1392.72 131.808C1392.72 130.368 1393.01 129.28 1393.6 128.544C1394.2 127.797 1394.99 127.424 1395.98 127.424C1398.06 127.424 1399.1 128.949 1399.1 132ZM1395.98 128.352C1395.42 128.352 1394.95 128.603 1394.59 129.104C1394.24 129.605 1394.04 130.341 1393.98 131.312H1397.87C1397.85 130.384 1397.68 129.659 1397.36 129.136C1397.04 128.613 1396.58 128.352 1395.98 128.352ZM1404.65 124.224H1405.93V136H1404.75V134.32C1404.27 135.568 1403.47 136.192 1402.36 136.192C1401.53 136.192 1400.85 135.803 1400.33 135.024C1399.81 134.245 1399.55 133.173 1399.55 131.808C1399.55 130.443 1399.81 129.371 1400.33 128.592C1400.86 127.813 1401.55 127.424 1402.38 127.424C1403.39 127.424 1404.15 127.957 1404.65 129.024V124.224ZM1402.76 135.184C1403.36 135.184 1403.84 134.88 1404.19 134.272C1404.54 133.664 1404.72 132.843 1404.72 131.808C1404.72 130.773 1404.54 129.952 1404.19 129.344C1403.84 128.736 1403.36 128.432 1402.76 128.432C1402.18 128.432 1401.71 128.736 1401.36 129.344C1401 129.952 1400.83 130.773 1400.83 131.808C1400.83 132.843 1401 133.664 1401.36 134.272C1401.71 134.88 1402.18 135.184 1402.76 135.184ZM1407.24 136V134.256H1408.68V136H1407.24Z" fill="black" fill-opacity="0.6"/>
<path d="M411.92 97L408.72 67.16L405.52 97H393.44L387.2 41H395.76L400.48 85.16L404.72 41H413.2L417.6 85.48L422.16 41H429.84L423.6 97H411.92ZM443.078 73V97H434.278V41H443.078V65H453.078V41H462.038V97H453.078V73H443.078ZM487.939 41L496.899 97H488.019L486.499 86.84H475.699L474.179 97H466.099L475.059 41H487.939ZM481.059 50.92L476.819 79.24H485.299L481.059 50.92ZM495.39 49V41H522.59V49H513.39V97H504.59V49H495.39ZM551.048 41L557.528 80.76L563.528 41H575.768V97H567.448V56.84L561.368 97H553.048L546.488 57.4V97H538.808V41H551.048ZM590.249 53.88V84.12C590.249 88.12 592.009 89.64 594.809 89.64C597.609 89.64 599.369 88.12 599.369 84.12V53.88C599.369 49.88 597.609 48.36 594.809 48.36C592.009 48.36 590.249 49.88 590.249 53.88ZM581.449 83.56V54.44C581.449 45.48 586.169 40.36 594.809 40.36C603.449 40.36 608.169 45.48 608.169 54.44V83.56C608.169 92.52 603.449 97.64 594.809 97.64C586.169 97.64 581.449 92.52 581.449 83.56ZM620.369 41L627.089 86.68L633.809 41H641.889L633.249 97H620.129L611.489 41H620.369ZM654.797 49V64.6H666.877V72.6H654.797V89H669.997V97H645.997V41H669.997V49H654.797ZM674.33 54.44C674.33 45.48 678.73 40.36 687.29 40.36C695.85 40.36 700.25 45.48 700.25 54.44V56.2H691.93V53.88C691.93 49.88 690.33 48.36 687.53 48.36C684.73 48.36 683.13 49.88 683.13 53.88C683.13 65.4 700.33 67.56 700.33 83.56C700.33 92.52 695.85 97.64 687.21 97.64C678.57 97.64 674.09 92.52 674.09 83.56V80.12H682.41V84.12C682.41 88.12 684.17 89.56 686.97 89.56C689.77 89.56 691.53 88.12 691.53 84.12C691.53 72.6 674.33 70.44 674.33 54.44ZM726.034 97V78.44L714.914 41H724.114L730.834 66.52L737.554 41H745.954L734.834 78.44V97H726.034ZM756.421 53.88V84.12C756.421 88.12 758.181 89.64 760.981 89.64C763.781 89.64 765.541 88.12 765.541 84.12V53.88C765.541 49.88 763.781 48.36 760.981 48.36C758.181 48.36 756.421 49.88 756.421 53.88ZM747.621 83.56V54.44C747.621 45.48 752.341 40.36 760.981 40.36C769.621 40.36 774.341 45.48 774.341 54.44V83.56C774.341 92.52 769.621 97.64 760.981 97.64C752.341 97.64 747.621 92.52 747.621 83.56ZM779.659 41H788.459V84.2C788.459 88.2 790.219 89.64 793.019 89.64C795.819 89.64 797.579 88.2 797.579 84.2V41H805.899V83.64C805.899 92.6 801.419 97.72 792.779 97.72C784.139 97.72 779.659 92.6 779.659 83.64V41ZM821.796 49V41H848.996V49H839.796V97H830.996V49H821.796ZM860.952 53.88V84.12C860.952 88.12 862.712 89.64 865.512 89.64C868.312 89.64 870.072 88.12 870.072 84.12V53.88C870.072 49.88 868.312 48.36 865.512 48.36C862.712 48.36 860.952 49.88 860.952 53.88ZM852.152 83.56V54.44C852.152 45.48 856.872 40.36 865.512 40.36C874.152 40.36 878.872 45.48 878.872 54.44V83.56C878.872 92.52 874.152 97.64 865.512 97.64C856.872 97.64 852.152 92.52 852.152 83.56ZM897.013 97V41H910.933C919.733 41 924.053 45.88 924.053 54.84V83.16C924.053 92.12 919.733 97 910.933 97H897.013ZM910.773 49H905.813V89H910.773C913.573 89 915.253 87.56 915.253 83.56V54.44C915.253 50.44 913.573 49 910.773 49ZM949.111 41L958.071 97H949.191L947.671 86.84H936.871L935.351 97H927.271L936.231 41H949.111ZM942.231 50.92L937.991 79.24H946.471L942.231 50.92ZM980.969 97L970.009 56.44V97H962.089V41H973.129L982.169 74.52V41H990.009V97H980.969ZM1013.51 76.12H1021.83V83.56C1021.83 92.52 1017.35 97.64 1008.71 97.64C1000.07 97.64 995.589 92.52 995.589 83.56V54.44C995.589 45.48 1000.07 40.36 1008.71 40.36C1017.35 40.36 1021.83 45.48 1021.83 54.44V59.88H1013.51V53.88C1013.51 49.88 1011.75 48.36 1008.95 48.36C1006.15 48.36 1004.39 49.88 1004.39 53.88V84.12C1004.39 88.12 1006.15 89.56 1008.95 89.56C1011.75 89.56 1013.51 88.12 1013.51 84.12V76.12ZM1035.97 49V64.6H1048.05V72.6H1035.97V89H1051.17V97H1027.17V41H1051.17V49H1035.97Z" fill="#4E4E4E"/>
<line y1="1" x2="1440" y2="1" stroke="#4E4E4E" stroke-width="2"/>
</svg>
