<svg width="374" height="196" viewBox="0 0 374 196" fill="none" xmlns="http://www.w3.org/2000/svg">
<path d="M15.0781 66.9902V68.9824H2.53906V62.2246H5.03906V66.9902H15.0781ZM16.7969 71.0137V73.0449H9.82422V79.1973H7.32422V73.0449H0.527344V71.0137H16.7969ZM32.1289 62.459V64.0605C32.1289 65.7207 32.1289 67.5371 31.6797 70.0176H34.0234V72.0293H27.0898V79.2168H24.5898V72.0293H17.8125V70.0176H29.1602C29.6094 67.7227 29.6484 65.9844 29.6484 64.4512H19.668V62.459H32.1289ZM51.6406 68.1621V70.1934H49.1211V79.1582H46.6211V61.4238H49.1211V68.1621H51.6406ZM38.1445 63.123V72.752C40.4199 72.7227 42.8613 72.5078 45.4297 71.9902L45.6836 74.0605C42.7148 74.666 39.8242 74.8223 37.207 74.8223H35.6641V63.123H38.1445ZM63.5547 66.2676C63.5352 68.9824 64.9805 72.1074 67.9102 73.4551L66.5234 75.4082C64.541 74.5 63.125 72.6836 62.3438 70.5449C61.543 72.8984 60.0879 74.8906 58.0273 75.8574L56.582 73.8848C59.5508 72.498 61.0352 69.1973 61.0547 66.2676V65.1738H57.2852V63.1426H67.1289V65.1738H63.5547V66.2676ZM71.0156 61.4238V68.2012H73.6328V70.291H71.0156V79.1973H68.5156V61.4238H71.0156ZM89.1602 61.4434V74.4121H86.6602V61.4434H89.1602ZM89.6289 76.8926V78.8848H77.2461V73.1621H79.7656V76.8926H89.6289ZM81.0938 64.1387C81.0742 66.4824 82.3242 68.7871 85.2539 69.7246L83.9844 71.6777C81.9824 71.0137 80.5957 69.6855 79.8047 67.9863C79.0137 69.8125 77.5879 71.2773 75.5078 71.9902L74.2188 70.0176C77.207 69.0215 78.4961 66.541 78.4961 64.1387V62.4199H81.0938V64.1387ZM97.3242 62.6152C100.137 62.5957 102.246 64.4316 102.246 66.9707C102.246 69.5293 100.137 71.3457 97.3242 71.3457C94.5117 71.3457 92.3828 69.5293 92.3828 66.9707C92.3828 64.4316 94.5117 62.5957 97.3242 62.6152ZM97.3242 64.7637C95.918 64.7637 94.8438 65.584 94.8633 66.9707C94.8438 68.377 95.918 69.1777 97.3242 69.1777C98.7305 69.1777 99.8047 68.377 99.8242 66.9707C99.8047 65.584 98.75 64.7637 97.3242 64.7637ZM106.504 61.4238V79.2363H104.023V61.4238H106.504ZM91.6406 73.5723C94.8047 73.5918 99.1992 73.5332 103.008 73.0059L103.203 74.8027C99.2578 75.5645 95.0391 75.6035 91.9336 75.6035L91.6406 73.5723ZM129.707 71.3652V73.3574H122.754V79.1777H120.293V73.3574H113.438V71.3652H129.707ZM127.754 62.2832V69.4512H115.352V62.2832H127.754ZM117.812 64.2559V67.498H125.273V64.2559H117.812ZM146.113 61.4238V79.1973H143.75V70.2715H142.031V78.3379H139.746V61.7168H142.031V68.2793H143.75V61.4238H146.113ZM137.871 63.4746V65.4863H133.75V73.0645C135.469 73.0547 136.992 72.9668 138.711 72.6543L138.887 74.6855C136.719 75.0957 134.824 75.1543 132.48 75.1738H131.25V63.4746H137.871ZM164.277 69.3926V71.248H148.008V69.3926H164.277ZM162.324 72.127V76.3262H152.363V77.3418H162.852V79.041H149.883V74.7441H159.863V73.8457H149.863V72.127H162.324ZM162.305 61.7363V65.916H152.52V66.873H162.617V68.5527H150.039V64.334H159.805V63.4355H150V61.7363H162.305ZM178.984 62.8887V71.4238H170.449V62.8887H178.984ZM172.91 64.8809V69.4707H176.523V64.8809H172.91ZM184.023 61.4238V66.541H186.426V68.5918H184.023V74.3926H181.523V61.4238H184.023ZM184.668 76.8926V78.8848H172.5V73.123H174.98V76.8926H184.668ZM201.699 69.6465V71.6387H189.121V62.9082H201.562V64.9199H191.582V69.6465H201.699ZM203.477 74.9785V77.0293H187.207V74.9785H203.477ZM218.926 66.2676V68.2207H206.504V62.0488H208.984V66.2676H218.926ZM220.742 70.1348V72.0879H204.473V70.1348H220.742ZM219.043 76.8145V78.8066H206.348V73.5332H208.848V76.8145H219.043ZM232.09 65.8965C232.09 68.7676 232.891 71.7363 235.312 73.2988L233.965 75.2324C232.432 74.3047 231.455 72.7812 230.898 70.9551C230.254 72.9668 229.189 74.6465 227.578 75.623L226.055 73.7871C228.691 72.1465 229.668 69.0215 229.668 66.0137V62.9473H232.09V65.8965ZM241.797 61.4238V79.1973H239.414V61.4238H241.797ZM238.066 61.6777V78.377H235.742V69.4512H233.438V67.4199H235.742V61.6777H238.066ZM250.156 64.2168C250.156 66.3652 251.406 68.4355 254.219 69.3145L252.891 71.248C251.006 70.623 249.688 69.4121 248.926 67.8496C248.154 69.6465 246.777 71.0527 244.746 71.7363L243.398 69.7832C246.367 68.7871 247.637 66.4238 247.656 63.9824V62.3613H250.156V64.2168ZM257.773 61.4238V65.584H260.176V67.6543H257.773V71.9707H255.273V61.4238H257.773ZM251.953 72.3223C255.625 72.3223 257.949 73.5918 257.949 75.7598C257.949 77.9473 255.625 79.1973 251.953 79.1973C248.203 79.1973 245.859 77.9473 245.859 75.7598C245.859 73.5918 248.203 72.3223 251.953 72.3223ZM251.953 74.2754C249.609 74.2754 248.34 74.7832 248.359 75.7598C248.34 76.7754 249.609 77.2441 251.953 77.2441C254.258 77.2441 255.488 76.7754 255.488 75.7598C255.488 74.7832 254.258 74.2754 251.953 74.2754Z" fill="#753DE6"/>
<path d="M14.55 35.4004L9.2 21.4504L7.5 24.6504V35.4004H2V0.400388H7.5V15.6504L14.7 0.400388H20.2L12.55 16.0004L20.2 35.4004H14.55ZM24.9531 20.4004V15.4004H34.9531V20.4004H24.9531ZM48.7797 0.400388L52.8297 25.2504L56.5797 0.400388H64.2297V35.4004H59.0297V10.3004L55.2297 35.4004H50.0297L45.9297 10.6504V35.4004H41.1297V0.400388H48.7797ZM76.2305 5.40039V15.1504H83.7805V20.1504H76.2305V30.4004H85.7305V35.4004H70.7305V0.400388H85.7305V5.40039H76.2305ZM106.002 0.400388L110.202 28.9504L114.402 0.400388H119.452L114.052 35.4004H105.852L100.452 0.400388H106.002ZM124.52 35.4004V0.400388H130.02V35.4004H124.52ZM135.841 8.80039C135.841 3.20039 138.591 0.00039041 143.941 0.00039041C149.291 0.00039041 152.041 3.20039 152.041 8.80039V9.90039H146.841V8.45039C146.841 5.95039 145.841 5.00039 144.091 5.00039C142.341 5.00039 141.341 5.95039 141.341 8.45039C141.341 15.6504 152.091 17.0004 152.091 27.0004C152.091 32.6004 149.291 35.8004 143.891 35.8004C138.491 35.8004 135.691 32.6004 135.691 27.0004V24.8504H140.891V27.3504C140.891 29.8504 141.991 30.7504 143.741 30.7504C145.491 30.7504 146.591 29.8504 146.591 27.3504C146.591 20.1504 135.841 18.8004 135.841 8.80039ZM157.742 35.4004V0.400388H163.242V35.4004H157.742ZM174.814 8.45039V27.3504C174.814 29.8504 175.914 30.8004 177.664 30.8004C179.414 30.8004 180.514 29.8504 180.514 27.3504V8.45039C180.514 5.95039 179.414 5.00039 177.664 5.00039C175.914 5.00039 174.814 5.95039 174.814 8.45039ZM169.314 27.0004V8.80039C169.314 3.20039 172.264 0.00039041 177.664 0.00039041C183.064 0.00039041 186.014 3.20039 186.014 8.80039V27.0004C186.014 32.6004 183.064 35.8004 177.664 35.8004C172.264 35.8004 169.314 32.6004 169.314 27.0004ZM203.838 35.4004L196.988 10.0504V35.4004H192.038V0.400388H198.938L204.588 21.3504V0.400388H209.488V35.4004H203.838Z" fill="white"/>
<path d="M1.15625 110.4V99.0879H2.875V104.479H3.01562L7.75 99.0879H9.90625L5.34375 104.182L9.92188 110.4H7.84375L4.20312 105.354L2.875 106.885V110.4H1.15625ZM14.8594 104.9V106.338H9.84375V104.9H14.8594ZM16.875 110.4V101.916H18.4844V103.307H18.5781C18.9375 102.354 19.7656 101.807 20.8906 101.807C22.0156 101.807 22.8125 102.369 23.1719 103.307H23.2656C23.6719 102.385 24.5781 101.807 25.8125 101.807C27.3438 101.807 28.4375 102.775 28.4375 104.713V110.4H26.7656V104.869C26.7656 103.729 26.0469 103.244 25.1719 103.244C24.0938 103.244 23.4844 103.979 23.4844 104.994V110.4H21.8281V104.775C21.8281 103.854 21.1875 103.244 20.2812 103.244C19.3438 103.244 18.5469 104.025 18.5469 105.166V110.4H16.875ZM34.1094 110.572C31.6094 110.572 30.0781 108.854 30.0781 106.213C30.0781 103.604 31.6406 101.807 34 101.807C35.9375 101.807 37.7656 103.01 37.7656 106.072V106.666H31.7344C31.7812 108.275 32.7266 109.197 34.125 109.197C35.0781 109.197 35.6875 108.791 35.9688 108.275H37.6562C37.2812 109.65 35.9688 110.572 34.1094 110.572ZM31.75 105.416H36.125C36.125 104.119 35.2969 103.182 34.0156 103.182C32.6797 103.182 31.8125 104.213 31.75 105.416ZM50.25 101.822V103.01H40.6094V98.2285H42.0781V101.822H50.25ZM51.7188 104.775V105.963H38.9062V104.775H51.7188ZM50.3438 110.182V111.4H40.5V107.291H41.9844V110.182H50.3438ZM62.9688 106.525C66 106.525 67.9062 107.479 67.9219 109.119C67.9062 110.744 66 111.713 62.9688 111.697C59.9688 111.713 58.0469 110.744 58.0469 109.119C58.0469 107.479 59.9688 106.525 62.9688 106.525ZM62.9688 107.65C60.8438 107.65 59.5156 108.197 59.5312 109.119C59.5156 110.025 60.8438 110.557 62.9688 110.557C65.1094 110.557 66.4375 110.025 66.4531 109.119C66.4375 108.197 65.1094 107.65 62.9688 107.65ZM67.8125 98.416V99.5879C67.8125 100.713 67.8125 101.869 67.4219 103.307L65.9688 103.15C66.3438 101.721 66.3438 100.689 66.3438 99.6035H58.1562V98.416H67.8125ZM69.4062 104.166V105.369H56.6719V104.166H61.7812V101.541H63.2344V104.166H69.4062ZM81.4844 97.7285V101.869H83.5156V103.104H81.4844V107.9H79.9844V97.7285H81.4844ZM77.6875 98.791C77.6875 102.463 75.1875 105.135 71.0938 106.369L70.4688 105.182C73.7422 104.197 75.7812 102.338 76.0781 100.025H71.0625V98.791H77.6875ZM82.0625 110.229V111.432H72.5938V106.854H74.0938V110.229H82.0625ZM90.6875 97.9629C93.8438 97.9629 95.6875 98.8066 95.6875 100.369C95.6875 101.932 93.8438 102.791 90.6875 102.791C87.5312 102.791 85.6875 101.932 85.6875 100.369C85.6875 98.8066 87.5312 97.9629 90.6875 97.9629ZM90.6875 99.0566C88.4531 99.0566 87.2188 99.541 87.2344 100.369C87.2188 101.229 88.4531 101.682 90.6875 101.682C92.9219 101.682 94.1562 101.229 94.1562 100.369C94.1562 99.541 92.9219 99.0566 90.6875 99.0566ZM97.0781 103.65V104.838H84.3125V103.65H97.0781ZM95.4688 105.916V109.197H87.3125V110.447H95.8594V111.588H85.8594V108.119H94V107.025H85.8438V105.916H95.4688ZM113.047 97.7129V101.775H115.094V103.01H113.047V107.854H111.562V97.7129H113.047ZM108.922 98.916V100.119H104.141V104.197C106.867 104.205 108.406 104.119 110.156 103.76L110.328 104.963C108.438 105.338 106.781 105.432 103.781 105.432H102.672V98.916H108.922ZM113.641 110.229V111.432H104.172V106.807H105.656V110.229H113.641ZM123.016 98.6973C123.016 100.447 125.266 102.135 127.922 102.525L127.344 103.697C125.125 103.33 123.164 102.182 122.266 100.604C121.375 102.213 119.398 103.361 117.172 103.729L116.609 102.557C119.266 102.15 121.5 100.51 121.5 98.6973V98.0879H123.016V98.6973ZM128.672 104.775V105.979H123.109V108.682H121.641V105.979H115.859V104.775H128.672ZM127.25 110.229V111.432H117.453V107.369H118.938V110.229H127.25ZM140.703 97.7441V102.244H142.734V103.479H140.703V108.213H139.219V97.7441H140.703ZM138.062 99.3691V100.572H129.719V99.3691H133.156V97.7285H134.641V99.3691H138.062ZM133.891 101.244C135.906 101.244 137.281 102.291 137.281 103.885C137.281 105.479 135.906 106.51 133.891 106.51C131.859 106.51 130.484 105.479 130.484 103.885C130.484 102.291 131.859 101.244 133.891 101.244ZM133.891 102.385C132.703 102.385 131.906 102.963 131.922 103.885C131.906 104.791 132.703 105.354 133.891 105.354C135.078 105.354 135.875 104.791 135.891 103.885C135.875 102.963 135.078 102.385 133.891 102.385ZM141.297 110.229V111.432H131.828V107.385H133.312V110.229H141.297ZM159.109 97.7441V108.057H157.625V104.416H154.156C153.492 105.205 152.477 105.682 151.312 105.682C149.203 105.682 147.641 104.213 147.641 102.15C147.641 100.072 149.203 98.6035 151.312 98.5879C152.469 98.5957 153.477 99.0723 154.141 99.8535H157.625V97.7441H159.109ZM159.484 110.229V111.432H150.016V106.979H151.5V110.229H159.484ZM151.312 99.916C150 99.916 149.062 100.822 149.062 102.15C149.062 103.479 150 104.369 151.312 104.369C152.578 104.369 153.531 103.479 153.531 102.15C153.531 100.822 152.578 99.916 151.312 99.916ZM154.797 101.057C154.891 101.393 154.953 101.76 154.953 102.15C154.953 102.525 154.898 102.885 154.797 103.213H157.625V101.057H154.797ZM164.312 106.119V107.604H170.891V106.119H172.375V111.557H162.844V106.119H164.312ZM164.312 110.369H170.891V108.76H164.312V110.369ZM174.031 104.01V105.244H161.266V104.01H174.031ZM168.406 98.4785C168.406 100.088 170.641 101.65 173.328 101.979L172.797 103.15C170.523 102.83 168.547 101.76 167.656 100.275C166.742 101.768 164.758 102.83 162.516 103.15L161.953 101.979C164.672 101.635 166.891 100.135 166.891 98.4785V97.8848H168.406V98.4785ZM186.688 97.7285V104.932H185.219V97.7285H186.688ZM186.703 105.604V109.104H178.984V110.4H187.172V111.588H177.547V107.979H185.234V106.775H177.5V105.604H186.703ZM180.188 99.1816C180.172 101.057 181.531 102.76 183.672 103.432L182.938 104.588C181.305 104.057 180.078 102.947 179.453 101.525C178.812 103.057 177.562 104.275 175.891 104.854L175.141 103.682C177.328 102.947 178.672 101.119 178.672 99.1816V98.1035H180.188V99.1816ZM200.516 97.7285V111.76H199.031V97.7285H200.516ZM193.031 98.7754C195.109 98.7754 196.641 100.682 196.641 103.682C196.641 106.697 195.109 108.604 193.031 108.604C190.922 108.604 189.406 106.697 189.406 103.682C189.406 100.682 190.922 98.7754 193.031 98.7754ZM193.031 100.104C191.734 100.104 190.844 101.479 190.844 103.682C190.844 105.9 191.734 107.275 193.031 107.275C194.312 107.275 195.203 105.9 195.203 103.682C195.203 101.479 194.312 100.104 193.031 100.104ZM210.406 98.7754C212.5 98.7754 213.984 100.682 214 103.682C213.984 106.697 212.5 108.604 210.406 108.604C208.312 108.604 206.812 106.697 206.828 103.682C206.812 100.682 208.312 98.7754 210.406 98.7754ZM210.406 100.104C209.125 100.104 208.25 101.479 208.25 103.682C208.25 105.9 209.125 107.275 210.406 107.275C211.703 107.275 212.578 105.9 212.578 103.682C212.578 101.479 211.703 100.104 210.406 100.104ZM217.562 97.7285V103.213H219.812V104.463H217.562V111.729H216.078V97.7285H217.562ZM232.094 97.7441V107.9H230.609V97.7441H232.094ZM232.516 110.229V111.432H222.844V106.838H224.328V110.229H232.516ZM222.828 98.7754V104.041C225.094 104.041 227.07 103.908 229.188 103.447L229.391 104.666C227.078 105.15 224.969 105.291 222.5 105.291H221.344V98.7754H222.828ZM11.875 128.338V129.541H2.14062V124.416H3.625V128.338H11.875ZM13.3281 131.479V132.697H7.59375V137.729H6.125V132.697H0.515625V131.479H13.3281ZM25.4844 124.604V125.838C25.4844 127.166 25.4844 128.604 25.0938 130.604H27.1094V131.822H21.4375V137.744H19.9375V131.822H14.3438V130.604H23.5938C24.0156 128.611 24.0156 127.143 24.0156 125.838V125.822H15.9062V124.604H25.4844ZM41.25 129.229V130.447H39.0781V137.713H37.5938V123.729H39.0781V129.229H41.25ZM30.1719 125.088V132.963C32.125 132.963 34.1641 132.799 36.3906 132.338L36.5625 133.588C34.1719 134.072 31.9531 134.197 29.8594 134.197H28.7031V125.088H30.1719ZM50.7812 127.854C50.7812 130.072 52.2344 132.541 54.3594 133.541L53.5156 134.697C51.9453 133.939 50.7031 132.361 50.0781 130.525C49.4297 132.533 48.1172 134.26 46.5156 135.057L45.6406 133.885C47.7656 132.869 49.3125 130.229 49.3125 127.854V126.369H46.1562V125.135H53.8281V126.369H50.7812V127.854ZM56.8125 123.729V129.275H59.0625V130.525H56.8125V137.729H55.3281V123.729H56.8125ZM71.3438 123.744V133.994H69.8594V123.744H71.3438ZM71.7656 136.229V137.432H62.1875V133.025H63.6875V136.229H71.7656ZM64.8281 125.9C64.8125 127.947 66.125 129.822 68.2812 130.572L67.5156 131.76C65.8984 131.158 64.7031 129.971 64.0781 128.447C63.4609 130.072 62.25 131.377 60.6094 132.01L59.8125 130.838C62.0156 130.025 63.3125 128.01 63.3125 125.9V124.51H64.8281V125.9ZM78.125 124.729C80.3438 124.713 81.9219 126.088 81.9375 128.057C81.9219 130.025 80.3438 131.4 78.125 131.4C75.9219 131.4 74.2969 130.025 74.3125 128.057C74.2969 126.088 75.9219 124.713 78.125 124.729ZM78.125 126.01C76.7656 126.01 75.7656 126.822 75.7812 128.057C75.7656 129.291 76.7656 130.104 78.125 130.104C79.4844 130.104 80.4844 129.291 80.4844 128.057C80.4844 126.822 79.4844 126.01 78.125 126.01ZM85.1406 123.729V137.76H83.6562V123.729H85.1406ZM73.6406 133.51C76.1875 133.51 79.7188 133.479 82.7812 133.041L82.8906 134.119C79.7188 134.729 76.3281 134.744 73.8281 134.744L73.6406 133.51ZM104.094 131.76V132.963H98.375V137.713H96.9219V132.963H91.2812V131.76H104.094ZM102.484 124.479V129.979H92.8906V124.479H102.484ZM94.3438 125.666V128.822H101V125.666H94.3438ZM117.141 123.729V137.729H115.719V130.494H113.906V137.01H112.547V124.01H113.906V129.275H115.719V123.729H117.141ZM110.844 125.416V126.619H107.078V133.104C108.797 133.088 110.094 133.01 111.594 132.729L111.703 133.947C110.016 134.291 108.578 134.354 106.531 134.369H105.594V125.416H110.844ZM131.75 130.15V131.291H118.938V130.15H131.75ZM130.172 132.275V135.354H121.953V136.51H130.609V137.557H120.469V134.369H128.703V133.338H120.453V132.275H130.172ZM130.141 124.088V127.119H122.047V128.182H130.375V129.229H120.578V126.135H128.656V125.135H120.547V124.088H130.141ZM143.781 124.963V131.494H137.234V124.963H143.781ZM138.688 126.166V130.322H142.328V126.166H138.688ZM147.688 123.713V127.9H149.719V129.15H147.688V133.979H146.203V123.713H147.688ZM148.281 136.229V137.432H138.812V132.994H140.297V136.229H148.281ZM163.297 129.463V130.65H150.516V129.463H163.297ZM161.781 127.26V128.447H152.188V124.135H161.641V125.338H153.672V127.26H161.781ZM161.672 131.76V135.15H153.516V136.4H162.062V137.572H152.062V134.057H160.203V132.9H152.047V131.76H161.672ZM168.141 124.775C170.039 124.775 171.43 126.385 171.656 128.979H174.547V123.729H176.016V137.76H174.547V130.182H171.672C171.508 132.908 170.086 134.604 168.141 134.604C166.047 134.604 164.578 132.697 164.594 129.682C164.578 126.682 166.047 124.775 168.141 124.775ZM168.141 126.104C166.875 126.104 166 127.479 166 129.682C166 131.9 166.875 133.275 168.141 133.275C169.406 133.275 170.281 131.9 170.281 129.682C170.281 127.479 169.406 126.104 168.141 126.104ZM189.078 123.729V129.307H191.25V130.541H189.078V137.713H187.594V123.729H189.078ZM185.422 125.197C185.406 129.244 183.625 132.854 179.016 135.135L178.188 133.979C181.695 132.229 183.602 129.697 183.906 126.432H178.891V125.197H185.422ZM203.328 127.822V129.01H193.688V124.229H195.156V127.822H203.328ZM204.797 130.775V131.963H191.984V130.775H204.797ZM203.422 136.182V137.4H193.578V133.291H195.062V136.182H203.422ZM221.406 123.744V132.025H219.922V130.322H216.391V129.104H219.922V127.4H216.531C215.633 129.65 213.531 131.236 210.5 132.104L209.906 130.947C213.219 129.994 215.156 128.221 215.422 125.963H210.625V124.744H217.031C217.031 125.26 216.977 125.76 216.891 126.229H219.922V123.744H221.406ZM216.797 132.182C219.625 132.182 221.484 133.213 221.5 134.916C221.484 136.619 219.625 137.666 216.797 137.666C213.922 137.666 212.078 136.619 212.078 134.916C212.078 133.213 213.922 132.182 216.797 132.182ZM216.797 133.354C214.797 133.354 213.547 133.916 213.547 134.916C213.547 135.9 214.797 136.479 216.797 136.479C218.766 136.479 220 135.9 220.016 134.916C220 133.916 218.766 133.354 216.797 133.354ZM235.234 123.729V132.213H233.75V129.166H231.562V127.932H233.75V123.729H235.234ZM235.234 132.9V137.557H226V132.9H235.234ZM227.469 134.072V136.354H233.781V134.072H227.469ZM231.781 125.119V126.307H223.578V125.119H226.953V123.604H228.422V125.119H231.781ZM227.688 126.947C229.609 126.947 230.969 127.979 230.969 129.447C230.969 130.963 229.609 131.947 227.688 131.963C225.766 131.947 224.391 130.963 224.391 129.447C224.391 127.979 225.766 126.947 227.688 126.947ZM227.688 128.088C226.562 128.072 225.812 128.619 225.812 129.447C225.812 130.307 226.562 130.838 227.688 130.838C228.797 130.838 229.547 130.307 229.547 129.447C229.547 128.619 228.797 128.072 227.688 128.088ZM247.609 132.525C250.641 132.525 252.547 133.479 252.562 135.119C252.547 136.744 250.641 137.713 247.609 137.697C244.609 137.713 242.688 136.744 242.688 135.119C242.688 133.479 244.609 132.525 247.609 132.525ZM247.609 133.65C245.484 133.65 244.156 134.197 244.172 135.119C244.156 136.025 245.484 136.557 247.609 136.557C249.75 136.557 251.078 136.025 251.094 135.119C251.078 134.197 249.75 133.65 247.609 133.65ZM252.453 124.416V125.588C252.453 126.713 252.453 127.869 252.062 129.307L250.609 129.15C250.984 127.721 250.984 126.689 250.984 125.604H242.797V124.416H252.453ZM254.047 130.166V131.369H241.312V130.166H246.422V127.541H247.875V130.166H254.047ZM266.125 123.729V127.869H268.156V129.104H266.125V133.9H264.625V123.729H266.125ZM262.328 124.791C262.328 128.463 259.828 131.135 255.734 132.369L255.109 131.182C258.383 130.197 260.422 128.338 260.719 126.025H255.703V124.791H262.328ZM266.703 136.229V137.432H257.234V132.854H258.734V136.229H266.703ZM275.328 124.572C278.266 124.572 280.5 126.119 280.5 128.479C280.5 130.838 278.266 132.4 275.328 132.385C272.391 132.4 270.172 130.838 270.172 128.479C270.172 126.119 272.391 124.572 275.328 124.572ZM275.328 125.775C273.188 125.76 271.578 126.854 271.594 128.479C271.578 130.119 273.188 131.166 275.328 131.166C277.469 131.166 279.062 130.119 279.062 128.479C279.062 126.854 277.469 125.76 275.328 125.775ZM281.766 134.682V135.916H268.953V134.682H281.766ZM295.594 134.807V136.057H282.781V134.807H288.422V132.354H284.344V127.9H292.562V125.932H284.312V124.713H294.031V129.088H285.812V131.135H294.359V132.354H289.891V134.807H295.594ZM311.531 123.744V127.9H313.531V129.119H311.531V133.166H310.047V123.744H311.531ZM300.422 131.604C301.508 131.604 302.766 131.604 304.078 131.557V130.619C302.484 130.455 301.469 129.705 301.484 128.572C301.469 127.291 302.797 126.494 304.812 126.51C306.812 126.494 308.141 127.291 308.141 128.572C308.141 129.697 307.141 130.447 305.562 130.619V131.51C306.812 131.447 308.078 131.346 309.25 131.182L309.375 132.244C306.359 132.775 303.047 132.791 300.578 132.791L300.422 131.604ZM311.531 133.822V137.729H310.047V134.979H302.172V133.822H311.531ZM308.859 124.932V126.041H300.781V124.932H304.078V123.619H305.562V124.932H308.859ZM304.812 127.525C303.609 127.51 302.891 127.9 302.891 128.572C302.891 129.229 303.609 129.65 304.812 129.65C306 129.65 306.719 129.229 306.719 128.572C306.719 127.9 306 127.51 304.812 127.525ZM319.234 126.307C319.234 128.088 320.469 129.713 322.594 130.385L321.891 131.541C320.297 131.033 319.133 129.979 318.516 128.65C317.906 130.182 316.68 131.393 315 131.979L314.234 130.791C316.422 130.072 317.734 128.26 317.75 126.322V125.932H314.672V124.729H322.25V125.932H319.234V126.307ZM325.344 123.729V127.197H327.375V128.416H325.344V132.135H323.859V123.729H325.344ZM320.828 132.479C323.719 132.479 325.469 133.432 325.469 135.072C325.469 136.729 323.719 137.713 320.828 137.697C317.906 137.713 316.125 136.729 316.125 135.072C316.125 133.432 317.906 132.479 320.828 132.479ZM320.828 133.65C318.797 133.65 317.594 134.166 317.609 135.072C317.594 136.01 318.797 136.525 320.828 136.525C322.844 136.525 324.016 136.01 324.016 135.072C324.016 134.166 322.844 133.65 320.828 133.65ZM339.172 123.729V127.244H341.203V128.494H339.172V131.885H337.688V123.729H339.172ZM331.688 132.463V133.822H337.688V132.463H339.172V137.557H330.219V132.463H331.688ZM331.688 136.369H337.688V134.979H331.688V136.369ZM336.531 125.104V126.291H328.188V125.104H331.625V123.604H333.109V125.104H336.531ZM332.359 126.869C334.375 126.869 335.75 127.822 335.75 129.322C335.75 130.807 334.375 131.791 332.359 131.775C330.312 131.791 328.953 130.807 328.953 129.322C328.953 127.822 330.312 126.869 332.359 126.869ZM332.359 127.979C331.172 127.963 330.375 128.51 330.391 129.322C330.375 130.15 331.172 130.682 332.359 130.682C333.547 130.682 334.344 130.15 334.359 129.322C334.344 128.51 333.547 127.963 332.359 127.979ZM353.625 123.729V137.729H352.141V123.729H353.625ZM344.328 125.088V132.885C346.367 132.869 348.516 132.705 350.766 132.244L350.969 133.494C348.484 133.994 346.234 134.166 344.031 134.166H342.859V125.088H344.328ZM366.734 123.729V129.15H368.984V130.369H366.734V137.76H365.25V123.729H366.734ZM362.969 125.072V126.275H357.906V133.041C360.258 133.033 362.023 132.932 364.016 132.572L364.203 133.822C362.016 134.213 360.156 134.291 357.547 134.275H356.422V125.072H362.969ZM371.25 136.51C370.641 136.51 370.125 136.01 370.141 135.4C370.125 134.791 370.641 134.291 371.25 134.291C371.844 134.291 372.359 134.791 372.359 135.4C372.359 136.01 371.844 136.51 371.25 136.51ZM11.5156 149.729V153.182H13.5469V154.432H11.5156V157.916H10.0312V149.729H11.5156ZM7.64062 150.588C7.64062 154.197 5.20312 156.713 1.04688 157.791L0.4375 156.65C3.79688 155.775 5.78906 154.002 6.04688 151.791H1.10938V150.588H7.64062ZM11.5156 158.525V163.729H10.0312V159.729H2.26562V158.525H11.5156ZM19.2188 153.854C19.2188 156.072 20.6719 158.541 22.7969 159.541L21.9531 160.697C20.3828 159.939 19.1406 158.361 18.5156 156.525C17.8672 158.533 16.5547 160.26 14.9531 161.057L14.0781 159.885C16.2031 158.869 17.75 156.229 17.75 153.854V152.369H14.5938V151.135H22.2656V152.369H19.2188V153.854ZM25.25 149.729V155.275H27.5V156.525H25.25V163.729H23.7656V149.729H25.25ZM32.7344 150.729C34.9531 150.713 36.5312 152.088 36.5469 154.057C36.5312 156.025 34.9531 157.4 32.7344 157.4C30.5312 157.4 28.9062 156.025 28.9219 154.057C28.9062 152.088 30.5312 150.713 32.7344 150.729ZM32.7344 152.01C31.375 152.01 30.375 152.822 30.3906 154.057C30.375 155.291 31.375 156.104 32.7344 156.104C34.0938 156.104 35.0938 155.291 35.0938 154.057C35.0938 152.822 34.0938 152.01 32.7344 152.01ZM39.75 149.729V163.76H38.2656V149.729H39.75ZM28.25 159.51C30.7969 159.51 34.3281 159.479 37.3906 159.041L37.5 160.119C34.3281 160.729 30.9375 160.744 28.4375 160.744L28.25 159.51ZM52.2812 149.963C55.3594 149.963 57.2812 150.947 57.2812 152.635C57.2812 154.275 55.3594 155.26 52.2812 155.26C49.2188 155.26 47.2812 154.275 47.2812 152.635C47.2812 150.947 49.2188 149.963 52.2812 149.963ZM52.2812 151.119C50.125 151.119 48.7969 151.666 48.8125 152.635C48.7969 153.572 50.125 154.104 52.2812 154.104C54.4219 154.104 55.75 153.572 55.75 152.635C55.75 151.666 54.4219 151.119 52.2812 151.119ZM57.1094 158.885V163.557H47.4375V158.885H51.5469V157.416H45.9062V156.213H58.6719V157.416H53.0156V158.885H57.1094ZM48.9062 160.072V162.354H55.6719V160.072H48.9062ZM64.9219 152.244C64.9219 154.041 66.2656 155.76 68.4219 156.447L67.6562 157.604C66.0469 157.072 64.8281 155.963 64.2031 154.557C63.5703 156.08 62.3281 157.283 60.6562 157.869L59.8906 156.729C62.0625 155.979 63.4062 154.15 63.4219 152.244V151.854H60.2812V150.65H68V151.854H64.9219V152.244ZM71.3438 149.729V158.182H69.8594V149.729H71.3438ZM71.3438 158.885V163.729H69.8594V160.088H61.8594V158.885H71.3438ZM85.1719 149.744V157.713H83.6875V149.744H85.1719ZM85.1719 158.416V163.557H75.9688V158.416H85.1719ZM77.4375 159.604V162.354H83.7188V159.604H77.4375ZM77.5781 150.447C79.7188 150.447 81.2969 151.791 81.2969 153.76C81.2969 155.682 79.7188 157.041 77.5781 157.041C75.4375 157.041 73.8438 155.682 73.8438 153.76C73.8438 151.791 75.4375 150.447 77.5781 150.447ZM77.5781 151.697C76.25 151.697 75.2969 152.51 75.2969 153.76C75.2969 154.963 76.25 155.791 77.5781 155.791C78.8906 155.791 79.8438 154.963 79.8438 153.76C79.8438 152.51 78.8906 151.697 77.5781 151.697ZM98.9844 149.729V163.76H97.5V149.729H98.9844ZM91.5 150.775C93.5781 150.775 95.1094 152.682 95.1094 155.682C95.1094 158.697 93.5781 160.604 91.5 160.604C89.3906 160.604 87.875 158.697 87.875 155.682C87.875 152.682 89.3906 150.775 91.5 150.775ZM91.5 152.104C90.2031 152.104 89.3125 153.479 89.3125 155.682C89.3125 157.9 90.2031 159.275 91.5 159.275C92.7812 159.275 93.6719 157.9 93.6719 155.682C93.6719 153.479 92.7812 152.104 91.5 152.104ZM116.344 150.354V151.588C116.344 152.916 116.344 154.322 115.953 156.229L114.484 156.104C114.641 155.346 114.742 154.674 114.797 154.041L106.469 154.432L106.266 153.182L114.859 152.947C114.875 152.471 114.875 152.025 114.875 151.588V151.557H106.625V150.354H116.344ZM117.875 157.088V158.275H105.141V157.088H110.188V155.119H111.688V157.088H117.875ZM116.641 162.307V163.51H106.719V159.354H108.203V162.307H116.641ZM130.891 149.744V160.213H129.484V149.744H130.891ZM128.141 150.01V159.869H126.734V154.854H125V153.65H126.734V150.01H128.141ZM131.297 162.229V163.432H121.672V159.057H123.172V162.229H131.297ZM124.906 150.854V152.057H121V153.807H124.359V154.963H121V156.791C122.844 156.783 124.07 156.736 125.5 156.447L125.641 157.635C124.031 157.947 122.703 158.01 120.484 158.01H119.578V150.854H124.906ZM145.594 160.76V161.979H132.781V160.76H145.594ZM144.406 151.885V153.088H139.922C139.984 155.189 142.039 156.924 144.906 157.385L144.312 158.572C141.992 158.158 140.07 156.971 139.172 155.26C138.258 156.971 136.336 158.158 134.031 158.572L133.453 157.385C136.289 156.924 138.344 155.189 138.422 153.088H133.938V151.885H138.438V150.025H139.906V151.885H144.406ZM157.516 149.729V155.307H159.688V156.541H157.516V163.713H156.031V149.729H157.516ZM153.859 151.197C153.844 155.244 152.062 158.854 147.453 161.135L146.625 159.979C150.133 158.229 152.039 155.697 152.344 152.432H147.328V151.197H153.859ZM172.688 155.65V156.869H169.734V159.463C171.031 159.4 172.336 159.314 173.562 159.182L173.672 160.275C170.594 160.744 167.266 160.775 164.609 160.791L164.422 159.557C165.602 159.557 166.906 159.549 168.25 159.51V156.869H165.438V151.025H172.625V152.229H166.906V155.65H172.688ZM175.922 149.729V163.76H174.438V149.729H175.922ZM189.5 151.072V152.447C189.5 154.182 189.5 156.119 188.969 158.979L187.469 158.822C188.016 156.119 188.016 154.135 188.016 152.447V152.275H179.516V151.072H189.5ZM190.938 160.604V161.838H178.172V160.604H183.031V155.666H184.5V160.604H190.938ZM194.516 161.322L193.266 165.635H191.938L192.766 161.322H194.516ZM5.375 179.291C5.35938 181.775 6.79688 184.307 8.89062 185.322L7.96875 186.51C6.44531 185.721 5.26562 184.15 4.65625 182.275C4.02344 184.275 2.79688 185.947 1.20312 186.775L0.28125 185.572C2.4375 184.541 3.89062 181.854 3.89062 179.291V176.9H5.375V179.291ZM11.4219 175.729V181.307H13.6719V182.572H11.4219V189.729H9.9375V175.729H11.4219ZM25.3438 175.744V179.229H27.3906V180.479H25.3438V184.072H23.8594V175.744H25.3438ZM25.3438 184.729V189.557H16.375V184.729H25.3438ZM17.8281 185.885V188.354H23.9062V185.885H17.8281ZM21.2812 176.479V180.432H16.4062V182.182C18.8359 182.174 20.5547 182.104 22.5938 181.76L22.75 182.947C20.5781 183.338 18.7344 183.416 16.0469 183.416H14.9219V179.307H19.8281V177.666H14.9062V176.479H21.2812ZM35.9688 177.229V178.088C35.9688 179.26 35.9688 181.072 35.5625 183.572L34.0938 183.463C34.4453 181.221 34.4844 179.604 34.5 178.432H28.8125V177.229H35.9688ZM32.375 181.229V185.416C33.8672 185.369 35.3828 185.268 36.7812 185.088L36.8594 186.197C33.9375 186.666 30.6875 186.729 28.2031 186.713L28.0312 185.51C28.9062 185.502 29.8828 185.494 30.9062 185.463V181.229H32.375ZM39.0781 175.729V181.51H41.2188V182.775H39.0781V189.729H37.5781V175.729H39.0781ZM52.2188 184.525C55.25 184.525 57.1562 185.479 57.1719 187.119C57.1562 188.744 55.25 189.713 52.2188 189.697C49.2188 189.713 47.2969 188.744 47.2969 187.119C47.2969 185.479 49.2188 184.525 52.2188 184.525ZM52.2188 185.65C50.0938 185.65 48.7656 186.197 48.7812 187.119C48.7656 188.025 50.0938 188.557 52.2188 188.557C54.3594 188.557 55.6875 188.025 55.7031 187.119C55.6875 186.197 54.3594 185.65 52.2188 185.65ZM57.0625 176.416V177.588C57.0625 178.713 57.0625 179.869 56.6719 181.307L55.2188 181.15C55.5938 179.721 55.5938 178.689 55.5938 177.604H47.4062V176.416H57.0625ZM58.6562 182.166V183.369H45.9219V182.166H51.0312V179.541H52.4844V182.166H58.6562ZM70.7344 175.729V179.869H72.7656V181.104H70.7344V185.9H69.2344V175.729H70.7344ZM66.9375 176.791C66.9375 180.463 64.4375 183.135 60.3438 184.369L59.7188 183.182C62.9922 182.197 65.0312 180.338 65.3281 178.025H60.3125V176.791H66.9375ZM71.3125 188.229V189.432H61.8438V184.854H63.3438V188.229H71.3125ZM85.1562 175.729V189.76H83.6719V175.729H85.1562ZM77.6719 176.775C79.75 176.775 81.2812 178.682 81.2812 181.682C81.2812 184.697 79.75 186.604 77.6719 186.604C75.5625 186.604 74.0469 184.697 74.0469 181.682C74.0469 178.682 75.5625 176.775 77.6719 176.775ZM77.6719 178.104C76.375 178.104 75.4844 179.479 75.4844 181.682C75.4844 183.9 76.375 185.275 77.6719 185.275C78.9531 185.275 79.8438 183.9 79.8438 181.682C79.8438 179.479 78.9531 178.104 77.6719 178.104ZM102.969 175.744V186.057H101.484V182.416H98.0156C97.3516 183.205 96.3359 183.682 95.1719 183.682C93.0625 183.682 91.5 182.213 91.5 180.15C91.5 178.072 93.0625 176.604 95.1719 176.588C96.3281 176.596 97.3359 177.072 98 177.854H101.484V175.744H102.969ZM103.344 188.229V189.432H93.875V184.979H95.3594V188.229H103.344ZM95.1719 177.916C93.8594 177.916 92.9219 178.822 92.9219 180.15C92.9219 181.479 93.8594 182.369 95.1719 182.369C96.4375 182.369 97.3906 181.479 97.3906 180.15C97.3906 178.822 96.4375 177.916 95.1719 177.916ZM98.6562 179.057C98.75 179.393 98.8125 179.76 98.8125 180.15C98.8125 180.525 98.7578 180.885 98.6562 181.213H101.484V179.057H98.6562ZM116.797 175.729V182.854H115.312V181.51H111.766V180.354H115.312V178.838H111.938C111.07 181.01 108.961 182.439 105.859 183.166L105.344 181.947C108.703 181.205 110.523 179.65 110.766 177.588H106.078V176.369H112.391C112.391 176.822 112.352 177.252 112.281 177.666H115.312V175.729H116.797ZM116.797 183.447V186.994H109.141V188.4H117.219V189.588H107.672V185.869H115.312V184.619H107.641V183.447H116.797ZM127.297 181.65V182.869H124.344V185.463C125.641 185.4 126.945 185.314 128.172 185.182L128.281 186.275C125.203 186.744 121.875 186.775 119.219 186.791L119.031 185.557C120.211 185.557 121.516 185.549 122.859 185.51V182.869H120.047V177.025H127.234V178.229H121.516V181.65H127.297ZM130.531 175.729V189.76H129.047V175.729H130.531ZM144.109 179.822V181.01H134.469V176.229H135.938V179.822H144.109ZM145.578 182.775V183.963H132.766V182.775H145.578ZM144.203 188.182V189.4H134.359V185.291H135.844V188.182H144.203ZM154.828 179.525C154.828 181.854 155.781 184.197 157.688 185.213L156.812 186.385C155.492 185.643 154.594 184.314 154.109 182.729C153.586 184.463 152.625 185.947 151.266 186.744L150.328 185.666C152.328 184.494 153.391 182.01 153.391 179.619V177.01H154.828V179.525ZM162.562 175.729V189.729H161.141V182.51H159.453V189.041H158.031V175.994H159.453V181.307H161.141V175.729H162.562ZM177.156 186.807V188.057H164.344V186.807H169.984V184.354H165.906V179.9H174.125V177.932H165.875V176.713H175.594V181.088H167.375V183.135H175.922V184.354H171.453V186.807H177.156ZM190.969 182.744V183.947H185.422V186.666H183.922V183.947H178.156V182.744H190.969ZM189.547 188.213V189.432H179.766V185.322H181.25V188.213H189.547ZM184.547 176.057C187.562 176.057 189.516 177.15 189.516 178.9C189.516 180.65 187.562 181.729 184.547 181.729C181.547 181.729 179.562 180.65 179.562 178.9C179.562 177.15 181.547 176.057 184.547 176.057ZM184.547 177.244C182.5 177.244 181.141 177.869 181.156 178.9C181.141 179.916 182.5 180.525 184.547 180.525C186.609 180.525 187.953 179.916 187.953 178.9C187.953 177.869 186.609 177.244 184.547 177.244ZM208.703 183.76V184.963H202.984V189.713H201.531V184.963H195.891V183.76H208.703ZM207.094 176.479V181.979H197.5V176.479H207.094ZM198.953 177.666V180.822H205.609V177.666H198.953ZM221.75 175.729V189.729H220.328V182.494H218.516V189.01H217.156V176.01H218.516V181.275H220.328V175.729H221.75ZM215.453 177.416V178.619H211.688V185.104C213.406 185.088 214.703 185.01 216.203 184.729L216.312 185.947C214.625 186.291 213.188 186.354 211.141 186.369H210.203V177.416H215.453ZM228.125 176.729C230.344 176.713 231.922 178.088 231.938 180.057C231.922 182.025 230.344 183.4 228.125 183.4C225.922 183.4 224.297 182.025 224.312 180.057C224.297 178.088 225.922 176.713 228.125 176.729ZM228.125 178.01C226.766 178.01 225.766 178.822 225.781 180.057C225.766 181.291 226.766 182.104 228.125 182.104C229.484 182.104 230.484 181.291 230.484 180.057C230.484 178.822 229.484 178.01 228.125 178.01ZM235.141 175.729V189.76H233.656V175.729H235.141ZM223.641 185.51C226.188 185.51 229.719 185.479 232.781 185.041L232.891 186.119C229.719 186.729 226.328 186.744 223.828 186.744L223.641 185.51ZM252.938 175.729V189.729H251.438V175.729H252.938ZM248.766 177.229C248.766 181.322 247.016 184.885 242.219 187.182L241.438 185.979C245.164 184.205 246.977 181.682 247.266 178.416H242.109V177.229H248.766ZM266.75 176.4V177.588H262.484C262.57 179.111 264.586 180.455 267.188 180.775L266.625 181.947C264.227 181.635 262.258 180.518 261.5 178.947C260.742 180.51 258.781 181.635 256.391 181.947L255.828 180.775C258.445 180.455 260.438 179.111 260.516 177.588H256.297V176.4H266.75ZM267.922 182.854V184.057H262.359V186.775H260.891V184.057H255.109V182.854H267.922ZM266.5 188.229V189.432H256.703V185.432H258.188V188.229H266.5ZM275.328 175.963C278.484 175.963 280.328 176.807 280.328 178.369C280.328 179.932 278.484 180.791 275.328 180.791C272.172 180.791 270.328 179.932 270.328 178.369C270.328 176.807 272.172 175.963 275.328 175.963ZM275.328 177.057C273.094 177.057 271.859 177.541 271.875 178.369C271.859 179.229 273.094 179.682 275.328 179.682C277.562 179.682 278.797 179.229 278.797 178.369C278.797 177.541 277.562 177.057 275.328 177.057ZM281.719 181.65V182.838H268.953V181.65H281.719ZM280.109 183.916V187.197H271.953V188.447H280.5V189.588H270.5V186.119H278.641V185.025H270.484V183.916H280.109ZM293.781 176.963V183.494H287.234V176.963H293.781ZM288.688 178.166V182.322H292.328V178.166H288.688ZM297.688 175.713V179.9H299.719V181.15H297.688V185.979H296.203V175.713H297.688ZM298.281 188.229V189.432H288.812V184.994H290.297V188.229H298.281ZM313.297 181.979V183.182H300.516V181.979H313.297ZM311.859 179.494V180.713H302.109V176.135H311.719V177.369H303.594V179.494H311.859ZM303.609 184.166V185.588H310.188V184.166H311.672V189.51H302.141V184.166H303.609ZM303.609 188.307H310.188V186.76H303.609V188.307ZM325.969 175.729V189.729H324.484V175.729H325.969ZM316.672 177.088V184.885C318.711 184.869 320.859 184.705 323.109 184.244L323.312 185.494C320.828 185.994 318.578 186.166 316.375 186.166H315.203V177.088H316.672ZM339.078 175.729V181.15H341.328V182.369H339.078V189.76H337.594V175.729H339.078ZM335.312 177.072V178.275H330.25V185.041C332.602 185.033 334.367 184.932 336.359 184.572L336.547 185.822C334.359 186.213 332.5 186.291 329.891 186.275H328.766V177.072H335.312ZM343.594 188.51C342.984 188.51 342.469 188.01 342.484 187.4C342.469 186.791 342.984 186.291 343.594 186.291C344.188 186.291 344.703 186.791 344.703 187.4C344.703 188.01 344.188 188.51 343.594 188.51Z" fill="#CCCCCC"/>
</svg>
